<?xml version="1.0" encoding="iso-8859-1"?>
<!-- Generator: Adobe Illustrator 19.0.0, SVG Export Plug-In . SVG Version: 6.00 Build 0)  -->
<svg version="1.1" id="Layer_1" xmlns="http://www.w3.org/2000/svg" xmlns:xlink="http://www.w3.org/1999/xlink" x="0px" y="0px"
	 viewBox="0 0 512 512" style="enable-background:new 0 0 512 512;" xml:space="preserve">
<rect x="112.117" y="72.001" style="fill:#FBA218;" width="288.005" height="344.001"/>
<g>
	<rect x="112.117" y="424.004" style="fill:#84DCCF;" width="288.005" height="80"/>
	<rect x="112.117" y="8" style="fill:#84DCCF;" width="288.005" height="63.999"/>
</g>
<g>
	<rect x="112.117" y="72.001" style="fill:#F15A24;" width="48.004" height="344.001"/>
	<rect x="184.119" y="72.001" style="fill:#F15A24;" width="23.997" height="344.001"/>
	<rect x="224.12" y="72.001" style="fill:#F15A24;" width="16" height="344.001"/>
</g>
<g>
	<polygon style="fill:#FFFFFF;" points="55.679,127.673 55.679,303.539 216.117,303.539 256.118,351.539 296.117,303.539 
		456.321,303.539 456.321,127.673 	"/>
	<rect x="232.581" y="31.935" style="fill:#FFFFFF;" width="46.828" height="15.609"/>
</g>
<circle style="fill:#027EA8;" cx="256.12" cy="463.996" r="32"/>
<polygon points="104.117,0 104.117,112 120.117,112 120.117,80.844 352.258,80.844 352.258,65.235 120.117,65.235 120.117,16 
	392.117,16 392.117,65.235 367.868,65.235 367.868,80.844 392.117,80.844 392.117,112 408.117,112 408.117,0 "/>
<path d="M392.117,415.927h-272V320h-16v192h303.999V320h-16V415.927z M120.117,496v-64.464h272V496H120.117z"/>
<g>
	<polygon style="fill:#FFFFFF;" points="272.13,456.512 263.805,456.512 263.805,448.187 248.195,448.187 248.195,456.512 
		239.87,456.512 239.87,472.121 248.195,472.121 248.195,480.446 263.805,480.446 263.805,472.121 272.13,472.121 	"/>
	<rect x="352.253" y="456.514" style="fill:#FFFFFF;" width="15.609" height="15.609"/>
	<rect x="144.127" y="456.514" style="fill:#FFFFFF;" width="15.609" height="15.609"/>
</g>
<rect x="56.117" y="127.997" style="fill:#F2F2F2;" width="87.996" height="176.002"/>
<path d="M256.117,364.25l-43.655-52.387H47.354V120.387h417.292v191.476H299.772L256.117,364.25z M62.963,296.255h156.809
	l36.344,43.613l36.345-43.613h156.575V135.998H62.963C62.963,135.998,62.963,296.255,62.963,296.255z"/>
<rect x="104.583" y="159.934" style="fill:#027EA8;" width="95.738" height="15.609"/>
<rect x="104.583" y="192.194" width="159.216" height="15.609"/>
<rect x="279.409" y="192.194" style="fill:#027EA8;" width="32.26" height="15.609"/>
<rect x="328.319" y="192.194" width="79.088" height="15.609"/>
<rect x="104.583" y="224.453" style="fill:#FBA218;" width="63.478" height="15.609"/>
<rect x="183.671" y="224.453" style="fill:#027EA8;" width="223.735" height="15.609"/>
<rect x="104.583" y="255.672" width="15.609" height="15.609"/>
<rect x="135.802" y="255.672" style="fill:#027EA8;" width="15.609" height="15.609"/>
<rect x="168.062" y="255.672" style="fill:#FBA218;" width="15.609" height="15.609"/>
<g>
</g>
<g>
</g>
<g>
</g>
<g>
</g>
<g>
</g>
<g>
</g>
<g>
</g>
<g>
</g>
<g>
</g>
<g>
</g>
<g>
</g>
<g>
</g>
<g>
</g>
<g>
</g>
<g>
</g>
</svg>
